<?xml version="1.0" standalone="no"?><!DOCTYPE svg PUBLIC "-//W3C//DTD SVG 1.1//EN" "http://www.w3.org/Graphics/SVG/1.1/DTD/svg11.dtd"><svg t="1777614169440" class="icon" viewBox="0 0 1117 1024" version="1.1" xmlns="http://www.w3.org/2000/svg" p-id="28778" xmlns:xlink="http://www.w3.org/1999/xlink" width="69.8125" height="64"><path d="M1020.357617 10.471852a130.005062 130.005062 0 0 0-51.203502-10.506875H147.76168a154.73124 154.73124 0 0 0-52.359258 9.316096A147.796703 147.796703 0 0 0 0 146.570901v731.978931a144.539572 144.539572 0 0 0 96.558178 136.134073 154.73124 154.73124 0 0 0 52.359258 9.316095h820.236679a147.971817 147.971817 0 0 0 147.76168-147.76168V146.570901A144.539572 144.539572 0 0 0 1020.357617 10.471852z m-573.605308 318.70853a111.7231 111.7231 0 1 1-111.688078-109.376565 110.497298 110.497298 0 0 1 111.723101 109.376565z m522.401806 620.115739H147.76168a73.548122 73.548122 0 0 1-72.147206-58.173062 56.7021 56.7021 0 0 1-1.155756-14.009166v-55.86155l219.908886-186.146795 79.116766 75.614474a113.544292 113.544292 0 0 0 150.073192 5.813804l371.242903-307.150968c70.956427 76.805253 119.848416 127.973733 150.073193 154.73124v311.703947a76.560093 76.560093 0 0 1-75.614475 73.302962z" fill="#DEE0E4" p-id="28779"></path></svg>