<?xml version="1.0" standalone="no"?><!DOCTYPE svg PUBLIC "-//W3C//DTD SVG 1.1//EN" "http://www.w3.org/Graphics/SVG/1.1/DTD/svg11.dtd"><svg t="1777612869887" class="icon" viewBox="0 0 1024 1024" version="1.1" xmlns="http://www.w3.org/2000/svg" p-id="27209" xmlns:xlink="http://www.w3.org/1999/xlink" width="64" height="64"><path d="M512 16C238.72 16 16 238.72 16 512S238.72 1008 512 1008s496-222.72 496-496S785.28 16 512 16zM912 512c0 77.44-22.4 149.12-60.16 209.92L232.32 226.56A397.44 397.44 0 0 1 512 112c220.8 0 400 179.2 400 400zM112 512c0-77.44 22.4-149.12 60.16-209.92l619.52 495.36A397.44 397.44 0 0 1 512 912c-220.8 0-400-179.2-400-400z" p-id="27210" fill="#fd676f"></path></svg>