<?xml version="1.0" standalone="no"?><!DOCTYPE svg PUBLIC "-//W3C//DTD SVG 1.1//EN" "http://www.w3.org/Graphics/SVG/1.1/DTD/svg11.dtd"><svg t="1777612603247" class="icon" viewBox="0 0 1024 1024" version="1.1" xmlns="http://www.w3.org/2000/svg" p-id="13820" xmlns:xlink="http://www.w3.org/1999/xlink" width="64" height="64"><path d="M474.432 65.92a252.992 252.992 0 0 0-214.464 193.28c-6.272 26.816-7.424 71.552-2.56 100.032 7.36 42.816 23.872 80.192 50.496 114.24 12.096 15.424 33.856 36.864 47.232 46.528l8.832 6.336-5.76 2.496c-3.2 1.344-16.768 7.68-30.144 14.08-130.944 62.464-221.248 199.68-226.88 344.704-1.152 29.888-0.256 35.584 6.848 43.648 11.072 12.672 9.216 12.416 101.504 12.48 70.592 0.064 83.328-0.32 88.704-2.624a33.408 33.408 0 0 0 4.672-59.648l-8.256-5.12-63.488-0.512-63.552-0.512 0.832-7.168c0.448-3.904 2.624-16.384 4.864-27.648a341.12 341.12 0 0 1 145.792-216.384c60.416-40.064 136.896-60.224 206.08-54.336 29.184 2.432 59.328 8.512 82.304 16.512l17.6 6.08 23.424-24.384a466.56 466.56 0 0 0 23.936-26.112c0.32-0.96-6.912-4.928-16.128-8.768l-16.704-7.104 9.984-7.232c15.36-11.136 43.008-40.064 54.592-57.152 19.456-28.544 33.792-62.208 41.088-96.384 2.432-11.456 3.072-22.016 3.008-50.368-0.064-32.576-0.448-37.568-4.544-54.784A251.968 251.968 0 0 0 550.4 69.696c-15.04-3.264-61.632-5.568-75.968-3.776m64.192 69.568A183.872 183.872 0 0 1 680.32 280.96c3.904 20.16 3.84 53.12-0.128 72.32a184.96 184.96 0 0 1-133.824 142.912c-14.528 3.904-19.776 4.416-44.608 4.416-24.832 0-30.08-0.512-44.608-4.416-135.744-36.224-182.912-205.312-86.016-308.224a182.08 182.08 0 0 1 98.176-53.12c7.04-1.088 13.952-2.304 15.36-2.624 5.76-1.408 42.688 0.832 53.952 3.264m286.592 347.712a108.928 108.928 0 0 0-57.152 26.496c-7.552 6.784-219.648 257.728-236.544 279.936a39.744 39.744 0 0 0-6.848 13.568c-1.216 6.336 6.72 102.464 9.664 117.568 3.328 16.832 16.896 28.864 32.256 28.672 4.224 0 31.872-2.176 61.44-4.672 46.848-4.032 54.656-5.12 60.608-8.384 5.056-2.752 36.416-38.976 120.832-139.392 62.72-74.624 116.992-139.904 120.512-145.024 22.72-33.024 24.896-74.624 5.824-111.488-7.936-15.424-29.312-37.248-44.096-44.992a114.304 114.304 0 0 0-66.496-12.288m28.288 70.016c8.768 3.008 16.512 9.6 21.696 18.368 3.84 6.528 4.608 9.792 4.544 19.776-0.064 14.336-2.112 18.752-17.408 37.056l-10.944 13.248-30.592-25.664c-16.832-14.08-30.592-26.304-30.592-27.136 0-0.832 5.312-8 11.84-15.936 10.432-12.672 15.68-16.896 25.664-20.48a62.08 62.08 0 0 1 25.792 0.768m-76.928 115.392c16.768 13.824 30.336 25.664 30.144 26.24a8480 8480 0 0 1-75.136 90.048c-46.848 55.616-76.224 89.216-78.528 89.664-6.208 1.28-52.736 4.544-53.504 3.712a281.984 281.984 0 0 1-3.392-28.16c-2.304-23.424-2.304-27.968-0.32-30.848 5.504-8 147.52-175.68 148.864-175.744 0.768-0.064 15.168 11.2 31.872 25.088" fill="#9499a0" p-id="13821"></path></svg>