<?xml version="1.0" standalone="no"?><!DOCTYPE svg PUBLIC "-//W3C//DTD SVG 1.1//EN" "http://www.w3.org/Graphics/SVG/1.1/DTD/svg11.dtd"><svg t="1777728897600" class="icon" viewBox="0 0 1024 1024" version="1.1" xmlns="http://www.w3.org/2000/svg" p-id="4720" xmlns:xlink="http://www.w3.org/1999/xlink" width="64" height="64"><path d="M800 128H224c-89.6 0-160 70.4-160 160v448c0 89.6 70.4 160 160 160h576c89.6 0 160-70.4 160-160V288c0-89.6-70.4-160-160-160z m96 608c0 54.4-41.6 96-96 96H224c-54.4 0-96-41.6-96-96V288c0-54.4 41.6-96 96-96h576c54.4 0 96 41.6 96 96v448z" p-id="4721" fill="#9499a0"></path><path d="M419.2 544c0 51.2-3.2 108.8-83.2 108.8s-83.2-57.6-83.2-108.8V326.4H192v243.2c0 96 51.2 140.8 140.8 140.8 89.6 0 147.2-48 147.2-144v-240h-60.8V544z m291.2-217.6H553.6V704h60.8V556.8h96c102.4 0 121.6-67.2 121.6-115.2 0-44.8-19.2-115.2-121.6-115.2z m-3.2 179.2h-92.8V384h92.8c32 0 60.8 12.8 60.8 60.8 0 44.8-32 60.8-60.8 60.8z" p-id="4722" fill="#9499a0"></path></svg>