<svg xmlns="http://www.w3.org/2000/svg" class="icon" viewBox="98 98 830 830" width="64" height="64" version="1.1">
  <path d="M513 98C854.752 98 928 171.248 928 513S854.752 928 513 928 98 854.752 98 513 171.248 98 513 98z m0 69.166c-83.864 0-146.53 4.6-194.012 15.148-46.722 10.376-74.39 25.592-92.752 43.92-18.33 18.364-33.546 46.032-43.92 92.754-10.55 47.482-15.15 110.148-15.15 194.012s4.6 146.53 15.148 194.012c10.376 46.722 25.592 74.39 43.92 92.754 18.364 18.328 46.032 33.544 92.754 43.92 47.482 10.548 110.148 15.148 194.012 15.148s146.53-4.6 194.012-15.148c46.722-10.376 74.39-25.592 92.754-43.92 18.328-18.364 33.544-46.032 43.92-92.754 10.548-47.482 15.148-110.148 15.148-194.012s-4.6-146.53-15.148-194.012c-10.376-46.722-25.592-74.39-43.92-92.752-18.364-18.33-46.032-33.546-92.754-43.92-47.482-10.55-110.148-15.15-194.012-15.15z" fill="#9499a0"/>
  <path d="M409.25 270.916c76.394 0 138.334 61.94 138.334 138.334s-61.94 138.334-138.334 138.334-138.334-61.94-138.334-138.334 61.94-138.334 138.334-138.334z m0 69.168c-38.214 0-69.166 30.952-69.166 69.166s30.952 69.166 69.166 69.166 69.166-30.952 69.166-69.166-30.952-69.166-69.166-69.166z" fill="#9499a0"/>
  <path d="M182.314 707.012a411.68 411.68 0 0 1-3.77-19.02c3.32-3.354 6.848-6.78 10.548-10.202 30.02-27.7 77.156-61.04 133.7-61.04 40.186 0 71.588 9.06 97.456 19.228 9.648 3.77 18.952 7.886 27.044 11.448 2.316 1.036 4.564 2.04 6.674 2.974 10.03 4.358 17.948 7.574 25.316 9.682 12.9 3.666 23.724 3.978 38.214-2.662 16.634-7.642 39.806-25.246 73.212-63.46 75.358-86.08 150.058-108.696 209.402-105.618a199.392 199.392 0 0 1 58.688 12.07c0.036 4.15 0.036 8.334 0.036 12.588 0 22.824-0.346 44.094-1.04 63.91-0.656-0.414-1.278-0.83-1.9-1.28l-0.312-0.208a42.648 42.648 0 0 0-2.56-1.59c-2.488-1.486-6.466-3.666-11.758-5.948-10.58-4.6-25.936-9.476-44.75-10.48-35.76-1.832-90.712 10.1-153.722 82.1-35.76 40.88-66.642 67.094-96.454 80.788-31.954 14.664-60.07 13.696-86.078 6.294-12.104-3.458-23.62-8.3-33.994-12.83a1016.86 1016.86 0 0 1-7.852-3.458c-7.85-3.46-15.286-6.744-23.412-9.926-20.578-8.092-43.194-14.456-72.21-14.456-29.914 0-60.59 18.538-86.77 42.712-12.484 11.516-22.686 23.17-29.776 31.954-1.52 1.868-2.87 3.632-4.08 5.188-7.782-15.356-14.456-34.48-19.852-58.758z" fill="#9499a0"/>
</svg>