<?xml version="1.0" standalone="no"?><!DOCTYPE svg PUBLIC "-//W3C//DTD SVG 1.1//EN" "http://www.w3.org/Graphics/SVG/1.1/DTD/svg11.dtd"><svg t="1777628203786" class="icon" viewBox="0 0 1024 1024" version="1.1" xmlns="http://www.w3.org/2000/svg" p-id="66600" xmlns:xlink="http://www.w3.org/1999/xlink" width="64" height="64"><path d="M883.1 308.6H141.5c-24.8 0-44.9-20.1-44.9-44.9s20.1-44.9 44.9-44.9H883c24.8 0 44.9 20.1 44.9 44.9s-20 44.9-44.8 44.9z" fill="#fd676f" p-id="66601"></path><path d="M629.6 308.6H394.9c-24.8 0-44.9-20.1-44.9-44.9v-37.6c0-89.5 72.8-162.3 162.3-162.3s162.3 72.8 162.3 162.3v37.6c0 24.8-20.1 44.9-45 44.9z m-189.4-89.9h144.1c-3.7-36.5-34.6-65-72-65-37.5 0-68.4 28.5-72.1 65z" fill="#fd676f" p-id="66602"></path><path d="M698.5 958.6H326c-89.5 0-162.3-72.8-162.3-162.3V263.6c0-24.8 20.1-44.9 44.9-44.9h607.2c24.8 0 44.9 20.1 44.9 44.9v532.6c0.1 89.6-72.7 162.4-162.2 162.4z m-444.9-650v487.7c0 39.9 32.5 72.4 72.4 72.4h372.5c39.9 0 72.4-32.5 72.4-72.4V308.6H253.6z" fill="#fd676f" p-id="66603"></path><path d="M415.5 726.1c-24.8 0-44.9-20.1-44.9-44.9V498.1c0-24.8 20.1-44.9 44.9-44.9s44.9 20.1 44.9 44.9v183.1c0.1 24.8-20 44.9-44.9 44.9zM609 726.1c-24.8 0-44.9-20.1-44.9-44.9V498.1c0-24.8 20.1-44.9 44.9-44.9s44.9 20.1 44.9 44.9v183.1c0.1 24.8-20 44.9-44.9 44.9z" fill="#fd676f" p-id="66604"></path></svg>