<?xml version="1.0" standalone="no"?><!DOCTYPE svg PUBLIC "-//W3C//DTD SVG 1.1//EN" "http://www.w3.org/Graphics/SVG/1.1/DTD/svg11.dtd"><svg t="1777625210280" class="icon" viewBox="0 0 1024 1024" version="1.1" xmlns="http://www.w3.org/2000/svg" p-id="16557" xmlns:xlink="http://www.w3.org/1999/xlink" width="64" height="64"><path d="M512 1024q-217.14-5.71-362.29-149.71Q5.71 729.14 0 512q5.71-217.14 149.71-362.29Q294.86 5.71 512 0q217.14 5.71 362.29 149.71Q1018.29 294.86 1024 512q-5.71 217.14-149.71 362.29Q729.14 1018.29 512 1024z m0-950.86q-186.29 4.57-309.71 129.15Q77.71 325.71 73.14 512q4.57 186.29 129.15 309.71Q325.71 946.29 512 950.86q186.29-4.57 309.71-129.15Q946.29 698.29 950.86 512q-4.57-186.29-128.57-310.29-124-124-310.29-128.57z m1.14 737.15q-77.71 0-144-33.15-67.43-32-115.43-92.57-9.14-12.57-7.43-27.43 1.72-14.86 14.28-24 11.43-9.14 26.29-8 14.85 2.29 24 13.72 37.71 48 90.28 73.14 51.43 25.14 112 25.14t113.15-26.28q52.57-25.15 90.28-73.15 9.14-12.57 24-13.71 14.86-2.29 27.43 6.86 11.43 9.14 13.71 24 1.15 14.85-8 27.43-48 61.71-115.42 94.85-67.43 33.15-145.15 33.15zM348.57 515.43q-22.86 0-38.86-16-14.85-14.86-16-38.86v-73.14q1.15-22.86 16.57-38.29 15.43-15.43 38.29-16.57 22.86 1.14 38.86 16 14.86 16 16 38.86v73.14q-1.14 24-16 38.86-16 16-38.86 16z m329.14 0q-22.85 0-38.85-16-14.86-14.86-16-38.86v-73.14q1.14-22.86 16-38.86 16-14.86 38.85-16 22.86 1.14 38.86 16 14.86 16 16 38.86v73.14q-1.14 24-16 38.86-16 16-38.86 16z" fill="#9499a0" p-id="16558"></path></svg>