<?xml version="1.0" standalone="no"?><!DOCTYPE svg PUBLIC "-//W3C//DTD SVG 1.1//EN" "http://www.w3.org/Graphics/SVG/1.1/DTD/svg11.dtd"><svg t="1778477485932" class="icon" viewBox="0 0 1433 1024" version="1.1" xmlns="http://www.w3.org/2000/svg" p-id="6443" xmlns:xlink="http://www.w3.org/1999/xlink" width="89.5625" height="64"><path d="M0 3.19h1429.134V1024H0z" fill="#FCFCFC" p-id="6444"></path><path d="M322.193 155.036l58.059 419.808c3.19 21.054 22.968 36.366 44.022 33.176l497.007-68.905c21.054-3.19 36.366-22.968 33.176-44.022L896.4 75.285c-3.19-21.054-22.968-36.367-44.023-33.177L355.37 111.013c-21.054 3.19-35.728 22.968-33.176 44.023z" fill="#EAEAEA" p-id="6445"></path><path d="M546.133 153.76c35.09-5.105 66.991 19.14 72.095 54.23s-19.14 66.99-54.23 72.095-66.991-19.14-72.095-54.23 19.14-66.991 54.23-72.095z m332.402 311.347l-431.293 59.972c-9.57 1.276-17.226-8.294-14.036-17.226l34.453-129.515c15.312-37.005 64.438-44.023 88.682-12.122l29.349 38.28c12.76 16.588 38.918 12.122 45.298-7.656l54.869-171.624c9.57-30.624 51.678-37.004 69.542-9.57l131.43 230.958c4.466 5.742 2.552 14.036-3.828 17.865-1.276 0-3.19 0.638-4.466 0.638z" fill="#FFFFFF" p-id="6446"></path><path d="M495.093 287.74v423.637c0 21.692 17.226 38.918 38.918 38.918h502.111c21.692 0 38.918-17.226 38.918-38.918V287.74c0-21.692-17.226-38.919-38.918-38.919h-502.11c-21.055-0.638-38.92 17.227-38.92 38.919z" fill="#D6D6D6" p-id="6447"></path><path d="M716.481 317.09c35.09 0 63.8 28.71 63.8 63.8s-28.71 63.8-63.8 63.8-63.8-28.71-63.8-63.8 28.71-63.8 63.8-63.8z m287.103 354.093H567.188c-9.57 0-16.589-10.847-11.485-19.14l52.317-123.136c19.778-34.452 70.18-34.452 89.959 0l23.606 41.47c10.208 17.865 37.004 17.227 45.936-1.913l77.837-162.692c14.674-29.348 56.145-29.348 70.18 0l98.892 246.908c3.19 6.38 0 14.675-5.742 17.227-1.914 1.276-3.19 1.276-5.104 1.276z" fill="#FFFFFF" p-id="6448"></path><path d="M430.016 872.155l-37.004 3.828-1.276-12.76c10.208-0.639 23.606-1.915 38.28-3.19v-11.485h-18.502c-7.018 0-12.122 1.276-13.398 2.552-0.638-3.19-3.19-9.57-5.104-13.398 2.552-0.638 5.742-3.19 8.294-7.018 1.276-1.914 3.828-5.104 7.018-9.57h-16.588V809.63h23.606c1.914-3.19 3.828-7.018 5.104-10.846l15.312 3.828c-1.276 2.552-2.552 4.466-3.828 6.38h36.367v11.484h-44.66c-3.829 5.742-8.295 10.846-12.761 15.95h18.502v-10.208h14.036v10.208h24.883v12.122h-24.883v10.208l22.969-1.914v11.484l-22.969 2.553v14.674h-14.036v-13.398z m-18.502 16.588h109.1v62.524H505.3v-5.104h-79.75v5.742h-14.675v-63.162z m14.036 11.484v10.846h79.113v-10.846H425.55z m79.75 33.176V921.92h-79.75v11.484h79.75z m34.453-86.13H521.89v37.642h-14.036v-37.643h-18.502c-1.276 13.398-4.466 28.073-13.398 38.28-2.552-1.913-8.294-6.38-11.484-7.655 10.846-13.399 12.122-30.625 12.122-44.023V809.63c18.502-1.914 39.556-4.466 52.954-8.932l7.656 11.484c-12.76 3.828-30.624 6.38-46.574 7.656v15.312h50.402v12.122z m143.552 84.854c7.656 0 8.932-3.828 9.57-25.52 3.19 2.552 10.208 5.742 14.674 6.38-1.914 26.796-6.38 34.452-22.968 34.452h-28.073c-18.502 0-23.606-5.104-23.606-22.33v-52.316h-1.276c-7.018 31.9-23.606 61.248-65.714 78.474-1.914-3.828-6.38-9.57-10.209-12.76 37.643-14.036 53.593-38.918 59.973-65.714h-57.42V857.48h60.61c1.914-10.846 1.914-22.33 2.552-32.538h-53.592v-14.674h128.877v14.674H636.73c-0.638 10.846-1.276 21.692-2.552 32.538h72.095v15.313h-57.42v52.316c0 6.38 1.275 7.018 9.57 7.018h24.882z m183.107-126.325v144.827H851.1v-6.38H743.277v6.38h-14.674V805.164h137.81zM851.1 930.852V819.837H743.277v111.013H851.1z m-11.484-91.874c-7.018 10.846-16.588 19.778-28.71 27.434 12.122 5.105 25.52 8.933 38.918 11.485-3.19 2.552-7.018 7.656-8.932 11.484-14.674-3.19-29.986-8.294-43.384-15.312-14.674 7.656-31.263 14.036-47.213 17.864-1.276-3.828-4.466-9.57-7.018-12.76 14.036-2.552 28.073-7.018 41.47-12.76-5.741-3.829-10.845-7.657-15.311-12.76-4.467 3.827-8.933 7.017-12.76 10.207-2.553-2.552-7.019-7.018-10.209-9.57 14.036-8.294 27.435-20.416 35.729-33.176l12.76 4.466c-1.914 3.19-3.828 5.742-6.38 8.932h39.556l1.914-0.638 9.57 5.104z m-72.733 63.8c22.33 2.553 50.403 8.933 66.353 14.037l-7.018 10.846c-15.95-5.742-44.022-12.122-66.99-14.674l7.655-10.208z m15.313-19.777c13.398 2.552 29.986 7.656 39.556 12.122l-6.38 9.57c-9.57-4.466-26.158-10.208-39.556-13.398l6.38-8.294z m15.95-22.969c7.656-4.466 14.674-8.932 20.416-14.036h-39.556c5.104 5.104 11.484 10.208 19.14 14.036z m127.601-2.552c0 7.656 0 15.313-0.638 22.33h81.665v70.82h-17.226v-54.87h-66.353c-2.552 19.779-9.57 38.92-24.244 54.87-2.552-3.829-8.294-9.57-12.122-12.123 20.416-22.968 22.968-52.954 22.968-81.665v-54.868h15.95v37.642h44.022v-41.47h16.589v41.47h43.384v15.95H926.385v1.914z" fill="#D6D6D6" p-id="6449"></path></svg>